<mxfile host="app.diagrams.net" agent="Mozilla/5.0 (Windows NT 10.0; Win64; x64) AppleWebKit/537.36 (KHTML, like Gecko) Chrome/137.0.0.0 Safari/537.36" version="27.1.6">
  <diagram name="第 1 页" id="d0QWBeyUOkgOYyqn1vCh">
    <mxGraphModel dx="1295" dy="686" grid="1" gridSize="10" guides="1" tooltips="1" connect="1" arrows="1" fold="1" page="1" pageScale="1" pageWidth="1600" pageHeight="900" math="0" shadow="0">
      <root>
        <mxCell id="0" />
        <mxCell id="1" parent="0" />
        <mxCell id="4-Sn1hSJZ3nwtx0WgkI5-1" value="抓取姿态" style="swimlane;html=1;startSize=20;fillColor=#d5e8d4;strokeColor=#82b366;gradientColor=#97d077;" vertex="1" parent="1">
          <mxGeometry x="1110" y="150" width="240" height="730" as="geometry" />
        </mxCell>
        <mxCell id="4-Sn1hSJZ3nwtx0WgkI5-78" style="edgeStyle=orthogonalEdgeStyle;rounded=0;orthogonalLoop=1;jettySize=auto;html=1;" edge="1" parent="4-Sn1hSJZ3nwtx0WgkI5-1" source="4-Sn1hSJZ3nwtx0WgkI5-2" target="4-Sn1hSJZ3nwtx0WgkI5-6">
          <mxGeometry relative="1" as="geometry" />
        </mxCell>
        <mxCell id="4-Sn1hSJZ3nwtx0WgkI5-2" value="&lt;font style=&quot;font-size: 14px;&quot;&gt;离群点去除&lt;/font&gt;" style="rounded=1;whiteSpace=wrap;html=1;shadow=0;labelBackgroundColor=none;strokeWidth=1;fontFamily=Verdana;fontSize=8;align=center;fillColor=#d5e8d4;strokeColor=#82b366;" vertex="1" parent="4-Sn1hSJZ3nwtx0WgkI5-1">
          <mxGeometry x="35" y="60" width="100" height="60" as="geometry" />
        </mxCell>
        <mxCell id="4-Sn1hSJZ3nwtx0WgkI5-4" style="edgeStyle=orthogonalEdgeStyle;rounded=0;orthogonalLoop=1;jettySize=auto;html=1;entryX=0.5;entryY=0;entryDx=0;entryDy=0;" edge="1" parent="4-Sn1hSJZ3nwtx0WgkI5-1" source="4-Sn1hSJZ3nwtx0WgkI5-6" target="4-Sn1hSJZ3nwtx0WgkI5-11">
          <mxGeometry relative="1" as="geometry">
            <mxPoint x="85" y="400" as="targetPoint" />
          </mxGeometry>
        </mxCell>
        <mxCell id="4-Sn1hSJZ3nwtx0WgkI5-5" value="&lt;span style=&quot;font-size: 13px;&quot;&gt;前50个抓取姿态&lt;/span&gt;" style="edgeLabel;html=1;align=center;verticalAlign=middle;resizable=0;points=[];" vertex="1" connectable="0" parent="4-Sn1hSJZ3nwtx0WgkI5-4">
          <mxGeometry x="-0.0667" y="1" relative="1" as="geometry">
            <mxPoint as="offset" />
          </mxGeometry>
        </mxCell>
        <mxCell id="4-Sn1hSJZ3nwtx0WgkI5-6" value="&lt;font style=&quot;font-size: 15px;&quot;&gt;Graspnet&amp;nbsp;&lt;/font&gt;&lt;div&gt;&lt;font style=&quot;font-size: 15px;&quot;&gt;抓取&lt;/font&gt;&lt;span style=&quot;font-size: 15px; background-color: transparent; color: light-dark(rgb(0, 0, 0), rgb(255, 255, 255));&quot;&gt;位姿生成&lt;/span&gt;&lt;/div&gt;" style="rounded=1;whiteSpace=wrap;html=1;shadow=0;labelBackgroundColor=none;strokeWidth=1;fontFamily=Verdana;fontSize=8;align=center;fillColor=#d5e8d4;strokeColor=#82b366;" vertex="1" parent="4-Sn1hSJZ3nwtx0WgkI5-1">
          <mxGeometry x="35" y="290" width="100" height="60" as="geometry" />
        </mxCell>
        <mxCell id="4-Sn1hSJZ3nwtx0WgkI5-9" style="edgeStyle=orthogonalEdgeStyle;rounded=0;orthogonalLoop=1;jettySize=auto;html=1;entryX=0.5;entryY=0;entryDx=0;entryDy=0;" edge="1" parent="4-Sn1hSJZ3nwtx0WgkI5-1" source="4-Sn1hSJZ3nwtx0WgkI5-11" target="4-Sn1hSJZ3nwtx0WgkI5-17">
          <mxGeometry relative="1" as="geometry">
            <mxPoint x="85" y="530" as="targetPoint" />
          </mxGeometry>
        </mxCell>
        <mxCell id="4-Sn1hSJZ3nwtx0WgkI5-10" value="&lt;font style=&quot;font-size: 13px;&quot;&gt;Yes&lt;/font&gt;" style="edgeLabel;html=1;align=center;verticalAlign=middle;resizable=0;points=[];" vertex="1" connectable="0" parent="4-Sn1hSJZ3nwtx0WgkI5-9">
          <mxGeometry x="-0.136" y="-1" relative="1" as="geometry">
            <mxPoint as="offset" />
          </mxGeometry>
        </mxCell>
        <mxCell id="4-Sn1hSJZ3nwtx0WgkI5-11" value="&lt;div&gt;&lt;font style=&quot;font-size: 14px;&quot;&gt;中心抓取判断&lt;/font&gt;&lt;/div&gt;" style="rhombus;whiteSpace=wrap;html=1;fillColor=#d5e8d4;strokeColor=#82b366;" vertex="1" parent="4-Sn1hSJZ3nwtx0WgkI5-1">
          <mxGeometry x="21" y="410" width="128" height="80" as="geometry" />
        </mxCell>
        <mxCell id="4-Sn1hSJZ3nwtx0WgkI5-12" value="" style="endArrow=classic;html=1;rounded=0;entryX=1;entryY=0.5;entryDx=0;entryDy=0;" edge="1" parent="4-Sn1hSJZ3nwtx0WgkI5-1">
          <mxGeometry width="50" height="50" relative="1" as="geometry">
            <mxPoint x="200" y="89.5" as="sourcePoint" />
            <mxPoint x="135" y="89.5" as="targetPoint" />
          </mxGeometry>
        </mxCell>
        <mxCell id="4-Sn1hSJZ3nwtx0WgkI5-13" value="" style="endArrow=none;html=1;rounded=0;" edge="1" parent="4-Sn1hSJZ3nwtx0WgkI5-1">
          <mxGeometry width="50" height="50" relative="1" as="geometry">
            <mxPoint x="199" y="450" as="sourcePoint" />
            <mxPoint x="200" y="90" as="targetPoint" />
          </mxGeometry>
        </mxCell>
        <mxCell id="4-Sn1hSJZ3nwtx0WgkI5-14" value="&lt;span style=&quot;font-size: 13px;&quot;&gt;微调机械臂&lt;/span&gt;&lt;div&gt;&lt;span style=&quot;font-size: 13px;&quot;&gt;姿态&lt;/span&gt;&lt;/div&gt;" style="edgeLabel;html=1;align=center;verticalAlign=middle;resizable=0;points=[];" vertex="1" connectable="0" parent="4-Sn1hSJZ3nwtx0WgkI5-13">
          <mxGeometry x="-0.0431" y="-1" relative="1" as="geometry">
            <mxPoint as="offset" />
          </mxGeometry>
        </mxCell>
        <mxCell id="4-Sn1hSJZ3nwtx0WgkI5-15" value="" style="endArrow=none;html=1;rounded=0;" edge="1" parent="4-Sn1hSJZ3nwtx0WgkI5-1">
          <mxGeometry width="50" height="50" relative="1" as="geometry">
            <mxPoint x="149" y="450" as="sourcePoint" />
            <mxPoint x="199" y="450" as="targetPoint" />
          </mxGeometry>
        </mxCell>
        <mxCell id="4-Sn1hSJZ3nwtx0WgkI5-16" value="&lt;font style=&quot;font-size: 13px;&quot;&gt;NO&lt;/font&gt;" style="edgeLabel;html=1;align=center;verticalAlign=middle;resizable=0;points=[];" vertex="1" connectable="0" parent="4-Sn1hSJZ3nwtx0WgkI5-15">
          <mxGeometry x="-0.176" y="2" relative="1" as="geometry">
            <mxPoint as="offset" />
          </mxGeometry>
        </mxCell>
        <mxCell id="4-Sn1hSJZ3nwtx0WgkI5-17" value="&lt;font style=&quot;font-size: 13px;&quot;&gt;坐标变换&lt;/font&gt;" style="rounded=1;whiteSpace=wrap;html=1;shadow=0;labelBackgroundColor=none;strokeWidth=1;fontFamily=Verdana;fontSize=8;align=center;fillColor=#d5e8d4;strokeColor=#82b366;" vertex="1" parent="4-Sn1hSJZ3nwtx0WgkI5-1">
          <mxGeometry x="35" y="540" width="100" height="60" as="geometry" />
        </mxCell>
        <mxCell id="4-Sn1hSJZ3nwtx0WgkI5-18" value="目标检测" style="swimlane;html=1;startSize=20;fillColor=#fff2cc;strokeColor=#d6b656;gradientColor=#ffd966;" vertex="1" parent="1">
          <mxGeometry x="910" y="150" width="200" height="730" as="geometry" />
        </mxCell>
        <mxCell id="4-Sn1hSJZ3nwtx0WgkI5-19" style="edgeStyle=orthogonalEdgeStyle;rounded=0;orthogonalLoop=1;jettySize=auto;html=1;entryX=0.5;entryY=0;entryDx=0;entryDy=0;" edge="1" parent="4-Sn1hSJZ3nwtx0WgkI5-18" source="4-Sn1hSJZ3nwtx0WgkI5-20" target="4-Sn1hSJZ3nwtx0WgkI5-29">
          <mxGeometry relative="1" as="geometry" />
        </mxCell>
        <mxCell id="4-Sn1hSJZ3nwtx0WgkI5-20" value="&lt;font style=&quot;font-size: 15px;&quot;&gt;YOLOv10&lt;/font&gt;&lt;div&gt;&lt;font style=&quot;font-size: 15px;&quot;&gt;粗粒度&lt;/font&gt;&lt;/div&gt;&lt;div&gt;&lt;font style=&quot;font-size: 15px;&quot;&gt;目标检测&lt;/font&gt;&lt;/div&gt;" style="rounded=1;whiteSpace=wrap;html=1;shadow=0;labelBackgroundColor=none;strokeWidth=1;fontFamily=Verdana;fontSize=8;align=center;fillColor=#fff2cc;strokeColor=#d6b656;" vertex="1" parent="4-Sn1hSJZ3nwtx0WgkI5-18">
          <mxGeometry x="30" y="50" width="100" height="60" as="geometry" />
        </mxCell>
        <mxCell id="4-Sn1hSJZ3nwtx0WgkI5-21" value="&lt;font style=&quot;font-size: 13px;&quot;&gt;目标掩膜&lt;/font&gt;" style="rounded=1;whiteSpace=wrap;html=1;shadow=0;labelBackgroundColor=none;strokeWidth=1;fontFamily=Verdana;fontSize=8;align=center;fillColor=#fff2cc;strokeColor=#d6b656;" vertex="1" parent="4-Sn1hSJZ3nwtx0WgkI5-18">
          <mxGeometry x="30" y="280" width="100" height="60" as="geometry" />
        </mxCell>
        <mxCell id="4-Sn1hSJZ3nwtx0WgkI5-22" style="edgeStyle=orthogonalEdgeStyle;rounded=0;orthogonalLoop=1;jettySize=auto;html=1;" edge="1" parent="4-Sn1hSJZ3nwtx0WgkI5-18" source="4-Sn1hSJZ3nwtx0WgkI5-23" target="4-Sn1hSJZ3nwtx0WgkI5-28">
          <mxGeometry relative="1" as="geometry" />
        </mxCell>
        <mxCell id="4-Sn1hSJZ3nwtx0WgkI5-23" value="&lt;font style=&quot;font-size: 14px;&quot;&gt;微调&lt;/font&gt;&lt;div&gt;&lt;font style=&quot;font-size: 14px;&quot;&gt;Qwen2.5-vl&lt;/font&gt;&lt;div&gt;&lt;font style=&quot;font-size: 14px;&quot;&gt;目标检测&lt;/font&gt;&lt;/div&gt;&lt;/div&gt;" style="rounded=1;whiteSpace=wrap;html=1;shadow=0;labelBackgroundColor=none;strokeWidth=1;fontFamily=Verdana;fontSize=8;align=center;fillColor=#fff2cc;strokeColor=#d6b656;" vertex="1" parent="4-Sn1hSJZ3nwtx0WgkI5-18">
          <mxGeometry x="30" y="450" width="100" height="60" as="geometry" />
        </mxCell>
        <mxCell id="4-Sn1hSJZ3nwtx0WgkI5-24" style="edgeStyle=orthogonalEdgeStyle;rounded=0;orthogonalLoop=1;jettySize=auto;html=1;entryX=0.5;entryY=0;entryDx=0;entryDy=0;exitX=0.5;exitY=1;exitDx=0;exitDy=0;" edge="1" parent="4-Sn1hSJZ3nwtx0WgkI5-18" target="4-Sn1hSJZ3nwtx0WgkI5-28">
          <mxGeometry relative="1" as="geometry">
            <mxPoint x="80" y="570" as="sourcePoint" />
          </mxGeometry>
        </mxCell>
        <mxCell id="4-Sn1hSJZ3nwtx0WgkI5-25" value="&lt;span style=&quot;font-size: 14px;&quot;&gt;目标坐标信息&lt;/span&gt;" style="edgeLabel;html=1;align=center;verticalAlign=middle;resizable=0;points=[];" vertex="1" connectable="0" parent="4-Sn1hSJZ3nwtx0WgkI5-24">
          <mxGeometry x="-0.0984" y="1" relative="1" as="geometry">
            <mxPoint y="-18" as="offset" />
          </mxGeometry>
        </mxCell>
        <mxCell id="4-Sn1hSJZ3nwtx0WgkI5-26" style="edgeStyle=orthogonalEdgeStyle;rounded=1;html=1;labelBackgroundColor=none;startArrow=none;startFill=0;startSize=5;endArrow=classicThin;endFill=1;endSize=5;jettySize=auto;orthogonalLoop=1;strokeWidth=1;fontFamily=Verdana;fontSize=8" edge="1" parent="4-Sn1hSJZ3nwtx0WgkI5-18" target="4-Sn1hSJZ3nwtx0WgkI5-21">
          <mxGeometry relative="1" as="geometry">
            <mxPoint x="80" y="210" as="sourcePoint" />
          </mxGeometry>
        </mxCell>
        <mxCell id="4-Sn1hSJZ3nwtx0WgkI5-27" value="&lt;span style=&quot;font-size: 14px;&quot;&gt;目标坐标信息&lt;/span&gt;" style="edgeLabel;html=1;align=center;verticalAlign=middle;resizable=0;points=[];" vertex="1" connectable="0" parent="4-Sn1hSJZ3nwtx0WgkI5-26">
          <mxGeometry x="-0.2311" y="-2" relative="1" as="geometry">
            <mxPoint y="1" as="offset" />
          </mxGeometry>
        </mxCell>
        <mxCell id="4-Sn1hSJZ3nwtx0WgkI5-28" value="&lt;span style=&quot;font-size: 13px;&quot;&gt;目标掩膜&lt;/span&gt;" style="rounded=1;whiteSpace=wrap;html=1;shadow=0;labelBackgroundColor=none;strokeWidth=1;fontFamily=Verdana;fontSize=8;align=center;fillColor=#fff2cc;strokeColor=#d6b656;" vertex="1" parent="4-Sn1hSJZ3nwtx0WgkI5-18">
          <mxGeometry x="30" y="650" width="100" height="60" as="geometry" />
        </mxCell>
        <mxCell id="4-Sn1hSJZ3nwtx0WgkI5-29" value="&lt;font style=&quot;font-family: Verdana; font-size: 14px;&quot;&gt;Clip大模型&lt;/font&gt;&lt;div&gt;&lt;font style=&quot;font-family: Verdana; font-size: 14px;&quot;&gt;细粒度分类&lt;/font&gt;&lt;/div&gt;" style="rounded=1;whiteSpace=wrap;html=1;fillColor=#fff2cc;strokeColor=#d6b656;" vertex="1" parent="4-Sn1hSJZ3nwtx0WgkI5-18">
          <mxGeometry x="30" y="160" width="100" height="50" as="geometry" />
        </mxCell>
        <mxCell id="4-Sn1hSJZ3nwtx0WgkI5-32" style="edgeStyle=orthogonalEdgeStyle;rounded=0;orthogonalLoop=1;jettySize=auto;html=1;entryX=0;entryY=0.5;entryDx=0;entryDy=0;" edge="1" parent="1" target="4-Sn1hSJZ3nwtx0WgkI5-20">
          <mxGeometry relative="1" as="geometry">
            <mxPoint x="650" y="350" as="sourcePoint" />
            <Array as="points">
              <mxPoint x="650" y="230" />
            </Array>
          </mxGeometry>
        </mxCell>
        <mxCell id="4-Sn1hSJZ3nwtx0WgkI5-33" value="&lt;font style=&quot;font-size: 13px;&quot;&gt;RGB图像&lt;/font&gt;" style="edgeLabel;html=1;align=center;verticalAlign=middle;resizable=0;points=[];" vertex="1" connectable="0" parent="4-Sn1hSJZ3nwtx0WgkI5-32">
          <mxGeometry x="-0.0969" y="-1" relative="1" as="geometry">
            <mxPoint x="15" y="-1" as="offset" />
          </mxGeometry>
        </mxCell>
        <mxCell id="4-Sn1hSJZ3nwtx0WgkI5-34" style="edgeStyle=orthogonalEdgeStyle;rounded=0;orthogonalLoop=1;jettySize=auto;html=1;entryX=0;entryY=0.5;entryDx=0;entryDy=0;exitX=1;exitY=0.5;exitDx=0;exitDy=0;" edge="1" parent="1" source="4-Sn1hSJZ3nwtx0WgkI5-72" target="4-Sn1hSJZ3nwtx0WgkI5-21">
          <mxGeometry relative="1" as="geometry">
            <mxPoint x="630" y="331" as="sourcePoint" />
            <Array as="points">
              <mxPoint x="650" y="350" />
              <mxPoint x="650" y="460" />
            </Array>
          </mxGeometry>
        </mxCell>
        <mxCell id="4-Sn1hSJZ3nwtx0WgkI5-35" value="&lt;font style=&quot;font-size: 13px;&quot;&gt;深度图像&lt;/font&gt;" style="edgeLabel;html=1;align=center;verticalAlign=middle;resizable=0;points=[];" vertex="1" connectable="0" parent="4-Sn1hSJZ3nwtx0WgkI5-34">
          <mxGeometry x="0.0138" relative="1" as="geometry">
            <mxPoint as="offset" />
          </mxGeometry>
        </mxCell>
        <mxCell id="4-Sn1hSJZ3nwtx0WgkI5-36" style="edgeStyle=orthogonalEdgeStyle;rounded=0;orthogonalLoop=1;jettySize=auto;html=1;entryX=0;entryY=0.5;entryDx=0;entryDy=0;" edge="1" parent="1" source="4-Sn1hSJZ3nwtx0WgkI5-72" target="4-Sn1hSJZ3nwtx0WgkI5-23">
          <mxGeometry relative="1" as="geometry">
            <mxPoint x="700" y="680" as="targetPoint" />
            <mxPoint x="550" y="360" as="sourcePoint" />
            <Array as="points">
              <mxPoint x="570" y="630" />
            </Array>
          </mxGeometry>
        </mxCell>
        <mxCell id="4-Sn1hSJZ3nwtx0WgkI5-37" value="RGB图像" style="edgeLabel;html=1;align=center;verticalAlign=middle;resizable=0;points=[];" vertex="1" connectable="0" parent="4-Sn1hSJZ3nwtx0WgkI5-36">
          <mxGeometry x="0.536" y="2" relative="1" as="geometry">
            <mxPoint x="-16" y="2" as="offset" />
          </mxGeometry>
        </mxCell>
        <mxCell id="4-Sn1hSJZ3nwtx0WgkI5-38" value="路径规划" style="swimlane;html=1;startSize=20;fillColor=#dae8fc;strokeColor=#6c8ebf;gradientColor=#7ea6e0;" vertex="1" parent="1">
          <mxGeometry x="1350" y="150" width="200" height="730" as="geometry" />
        </mxCell>
        <mxCell id="4-Sn1hSJZ3nwtx0WgkI5-39" style="edgeStyle=orthogonalEdgeStyle;rounded=0;orthogonalLoop=1;jettySize=auto;html=1;entryX=0.5;entryY=0;entryDx=0;entryDy=0;" edge="1" parent="4-Sn1hSJZ3nwtx0WgkI5-38" source="4-Sn1hSJZ3nwtx0WgkI5-40" target="4-Sn1hSJZ3nwtx0WgkI5-43">
          <mxGeometry relative="1" as="geometry" />
        </mxCell>
        <mxCell id="4-Sn1hSJZ3nwtx0WgkI5-40" value="&lt;font style=&quot;font-size: 14px;&quot;&gt;MoveIt!&lt;/font&gt;&lt;div&gt;&lt;font style=&quot;font-size: 14px;&quot;&gt;路径规划&lt;/font&gt;&lt;/div&gt;" style="rounded=1;whiteSpace=wrap;html=1;shadow=0;labelBackgroundColor=none;strokeWidth=1;fontFamily=Verdana;fontSize=8;align=center;fillColor=#dae8fc;strokeColor=#6c8ebf;" vertex="1" parent="4-Sn1hSJZ3nwtx0WgkI5-38">
          <mxGeometry x="50" y="60" width="100" height="60" as="geometry" />
        </mxCell>
        <mxCell id="4-Sn1hSJZ3nwtx0WgkI5-41" style="edgeStyle=orthogonalEdgeStyle;rounded=0;orthogonalLoop=1;jettySize=auto;html=1;entryX=0.5;entryY=0;entryDx=0;entryDy=0;" edge="1" parent="4-Sn1hSJZ3nwtx0WgkI5-38" source="4-Sn1hSJZ3nwtx0WgkI5-43" target="4-Sn1hSJZ3nwtx0WgkI5-44">
          <mxGeometry relative="1" as="geometry" />
        </mxCell>
        <mxCell id="4-Sn1hSJZ3nwtx0WgkI5-42" value="&lt;font style=&quot;font-size: 13px;&quot;&gt;YES&lt;/font&gt;" style="edgeLabel;html=1;align=center;verticalAlign=middle;resizable=0;points=[];" vertex="1" connectable="0" parent="4-Sn1hSJZ3nwtx0WgkI5-41">
          <mxGeometry x="-0.3467" y="3" relative="1" as="geometry">
            <mxPoint as="offset" />
          </mxGeometry>
        </mxCell>
        <mxCell id="4-Sn1hSJZ3nwtx0WgkI5-43" value="&lt;font style=&quot;font-size: 15px;&quot;&gt;判断目标&lt;/font&gt;&lt;div&gt;&lt;font style=&quot;font-size: 15px;&quot;&gt;位姿可达&lt;/font&gt;&lt;/div&gt;" style="rhombus;whiteSpace=wrap;html=1;fillColor=#dae8fc;strokeColor=#6c8ebf;" vertex="1" parent="4-Sn1hSJZ3nwtx0WgkI5-38">
          <mxGeometry x="36" y="170" width="128" height="80" as="geometry" />
        </mxCell>
        <mxCell id="4-Sn1hSJZ3nwtx0WgkI5-44" value="&lt;font style=&quot;font-size: 14px;&quot;&gt;机械臂&lt;/font&gt;&lt;div&gt;&lt;font style=&quot;font-size: 14px;&quot;&gt;样条运动节点&lt;/font&gt;&lt;/div&gt;" style="rounded=1;whiteSpace=wrap;html=1;shadow=0;labelBackgroundColor=none;strokeWidth=1;fontFamily=Verdana;fontSize=8;align=center;fillColor=#dae8fc;strokeColor=#6c8ebf;" vertex="1" parent="4-Sn1hSJZ3nwtx0WgkI5-38">
          <mxGeometry x="50" y="310" width="100" height="60" as="geometry" />
        </mxCell>
        <mxCell id="4-Sn1hSJZ3nwtx0WgkI5-45" style="edgeStyle=orthogonalEdgeStyle;rounded=0;orthogonalLoop=1;jettySize=auto;html=1;entryX=0;entryY=0.5;entryDx=0;entryDy=0;" edge="1" parent="1" source="4-Sn1hSJZ3nwtx0WgkI5-17" target="4-Sn1hSJZ3nwtx0WgkI5-40">
          <mxGeometry relative="1" as="geometry">
            <Array as="points">
              <mxPoint x="1370" y="720" />
              <mxPoint x="1370" y="240" />
            </Array>
          </mxGeometry>
        </mxCell>
        <mxCell id="4-Sn1hSJZ3nwtx0WgkI5-46" value="机器人控制" style="swimlane;html=1;startSize=20;fillColor=#e6d0de;strokeColor=#996185;gradientColor=#d5739d;" vertex="1" parent="1">
          <mxGeometry x="1550" y="150" width="320" height="730" as="geometry" />
        </mxCell>
        <mxCell id="4-Sn1hSJZ3nwtx0WgkI5-47" value="" style="edgeStyle=orthogonalEdgeStyle;rounded=0;orthogonalLoop=1;jettySize=auto;html=1;" edge="1" parent="4-Sn1hSJZ3nwtx0WgkI5-46" source="4-Sn1hSJZ3nwtx0WgkI5-48" target="4-Sn1hSJZ3nwtx0WgkI5-50">
          <mxGeometry relative="1" as="geometry" />
        </mxCell>
        <mxCell id="4-Sn1hSJZ3nwtx0WgkI5-48" value="&lt;span style=&quot;font-size: 14px;&quot;&gt;机械臂控制&lt;/span&gt;" style="rounded=1;whiteSpace=wrap;html=1;shadow=0;labelBackgroundColor=none;strokeWidth=1;fontFamily=Verdana;fontSize=8;align=center;fillColor=#e1d5e7;strokeColor=#9673a6;" vertex="1" parent="4-Sn1hSJZ3nwtx0WgkI5-46">
          <mxGeometry x="50" y="60" width="100" height="60" as="geometry" />
        </mxCell>
        <mxCell id="4-Sn1hSJZ3nwtx0WgkI5-49" value="" style="edgeStyle=orthogonalEdgeStyle;rounded=0;orthogonalLoop=1;jettySize=auto;html=1;" edge="1" parent="4-Sn1hSJZ3nwtx0WgkI5-46" source="4-Sn1hSJZ3nwtx0WgkI5-50" target="4-Sn1hSJZ3nwtx0WgkI5-52">
          <mxGeometry relative="1" as="geometry" />
        </mxCell>
        <mxCell id="4-Sn1hSJZ3nwtx0WgkI5-80" value="到达目标位置" style="edgeLabel;html=1;align=center;verticalAlign=middle;resizable=0;points=[];" vertex="1" connectable="0" parent="4-Sn1hSJZ3nwtx0WgkI5-49">
          <mxGeometry x="-0.3633" y="-1" relative="1" as="geometry">
            <mxPoint y="7" as="offset" />
          </mxGeometry>
        </mxCell>
        <mxCell id="4-Sn1hSJZ3nwtx0WgkI5-50" value="&lt;span style=&quot;font-size: 14px;&quot;&gt;机械臂位置反馈&lt;/span&gt;" style="rounded=1;whiteSpace=wrap;html=1;shadow=0;labelBackgroundColor=none;strokeWidth=1;fontFamily=Verdana;fontSize=8;align=center;fillColor=#e1d5e7;strokeColor=#9673a6;" vertex="1" parent="4-Sn1hSJZ3nwtx0WgkI5-46">
          <mxGeometry x="50" y="157" width="100" height="60" as="geometry" />
        </mxCell>
        <mxCell id="4-Sn1hSJZ3nwtx0WgkI5-51" value="" style="edgeStyle=orthogonalEdgeStyle;rounded=0;orthogonalLoop=1;jettySize=auto;html=1;" edge="1" parent="4-Sn1hSJZ3nwtx0WgkI5-46" source="4-Sn1hSJZ3nwtx0WgkI5-52" target="4-Sn1hSJZ3nwtx0WgkI5-55">
          <mxGeometry relative="1" as="geometry" />
        </mxCell>
        <mxCell id="4-Sn1hSJZ3nwtx0WgkI5-52" value="&lt;font style=&quot;font-size: 14px;&quot;&gt;末端执行器&lt;/font&gt;&lt;div&gt;&lt;font style=&quot;font-size: 14px;&quot;&gt;控制&lt;/font&gt;&lt;/div&gt;" style="rounded=1;whiteSpace=wrap;html=1;shadow=0;labelBackgroundColor=none;strokeWidth=1;fontFamily=Verdana;fontSize=8;align=center;fillColor=#e1d5e7;strokeColor=#9673a6;" vertex="1" parent="4-Sn1hSJZ3nwtx0WgkI5-46">
          <mxGeometry x="50" y="270" width="100" height="60" as="geometry" />
        </mxCell>
        <mxCell id="4-Sn1hSJZ3nwtx0WgkI5-53" style="edgeStyle=orthogonalEdgeStyle;rounded=0;orthogonalLoop=1;jettySize=auto;html=1;entryX=0.5;entryY=0;entryDx=0;entryDy=0;" edge="1" parent="4-Sn1hSJZ3nwtx0WgkI5-46" source="4-Sn1hSJZ3nwtx0WgkI5-55" target="4-Sn1hSJZ3nwtx0WgkI5-57">
          <mxGeometry relative="1" as="geometry" />
        </mxCell>
        <mxCell id="4-Sn1hSJZ3nwtx0WgkI5-54" value="&lt;font style=&quot;font-size: 12px;&quot;&gt;Yes&lt;/font&gt;" style="edgeLabel;html=1;align=center;verticalAlign=middle;resizable=0;points=[];" vertex="1" connectable="0" parent="4-Sn1hSJZ3nwtx0WgkI5-53">
          <mxGeometry x="0.304" y="-3" relative="1" as="geometry">
            <mxPoint y="-10" as="offset" />
          </mxGeometry>
        </mxCell>
        <mxCell id="4-Sn1hSJZ3nwtx0WgkI5-55" value="&lt;font style=&quot;font-size: 13px;&quot;&gt;机械臂末端&lt;/font&gt;&lt;div&gt;&lt;font style=&quot;font-size: 13px;&quot;&gt;负载反馈&lt;/font&gt;&lt;/div&gt;" style="rhombus;whiteSpace=wrap;html=1;fontSize=8;fontFamily=Verdana;rounded=1;shadow=0;labelBackgroundColor=none;strokeWidth=1;fillColor=#e1d5e7;strokeColor=#9673a6;" vertex="1" parent="4-Sn1hSJZ3nwtx0WgkI5-46">
          <mxGeometry x="35" y="385" width="130" height="90" as="geometry" />
        </mxCell>
        <mxCell id="4-Sn1hSJZ3nwtx0WgkI5-56" style="edgeStyle=orthogonalEdgeStyle;rounded=0;orthogonalLoop=1;jettySize=auto;html=1;" edge="1" parent="4-Sn1hSJZ3nwtx0WgkI5-46" source="4-Sn1hSJZ3nwtx0WgkI5-57" target="4-Sn1hSJZ3nwtx0WgkI5-58">
          <mxGeometry relative="1" as="geometry" />
        </mxCell>
        <mxCell id="4-Sn1hSJZ3nwtx0WgkI5-79" value="运动到特定位置" style="edgeLabel;html=1;align=center;verticalAlign=middle;resizable=0;points=[];" vertex="1" connectable="0" parent="4-Sn1hSJZ3nwtx0WgkI5-56">
          <mxGeometry x="0.3166" y="-1" relative="1" as="geometry">
            <mxPoint y="-8" as="offset" />
          </mxGeometry>
        </mxCell>
        <mxCell id="4-Sn1hSJZ3nwtx0WgkI5-57" value="&lt;span style=&quot;font-size: 14px;&quot;&gt;机械臂控制&lt;/span&gt;" style="rounded=1;whiteSpace=wrap;html=1;shadow=0;labelBackgroundColor=none;strokeWidth=1;fontFamily=Verdana;fontSize=8;align=center;fillColor=#e1d5e7;strokeColor=#9673a6;" vertex="1" parent="4-Sn1hSJZ3nwtx0WgkI5-46">
          <mxGeometry x="50" y="520" width="100" height="60" as="geometry" />
        </mxCell>
        <mxCell id="4-Sn1hSJZ3nwtx0WgkI5-58" value="&lt;font style=&quot;font-size: 14px;&quot;&gt;末端执行器&lt;/font&gt;&lt;div&gt;&lt;font style=&quot;font-size: 14px;&quot;&gt;控制&lt;/font&gt;&lt;/div&gt;" style="rounded=1;whiteSpace=wrap;html=1;shadow=0;labelBackgroundColor=none;strokeWidth=1;fontFamily=Verdana;fontSize=8;align=center;fillColor=#e1d5e7;strokeColor=#9673a6;" vertex="1" parent="4-Sn1hSJZ3nwtx0WgkI5-46">
          <mxGeometry x="50" y="620" width="100" height="60" as="geometry" />
        </mxCell>
        <mxCell id="4-Sn1hSJZ3nwtx0WgkI5-59" value="&lt;span style=&quot;font-size: 14px;&quot;&gt;机械臂控制&lt;/span&gt;" style="rounded=1;whiteSpace=wrap;html=1;shadow=0;labelBackgroundColor=none;strokeWidth=1;fontFamily=Verdana;fontSize=8;align=center;fillColor=#e1d5e7;strokeColor=#9673a6;" vertex="1" parent="4-Sn1hSJZ3nwtx0WgkI5-46">
          <mxGeometry x="200" y="400" width="100" height="60" as="geometry" />
        </mxCell>
        <mxCell id="4-Sn1hSJZ3nwtx0WgkI5-60" style="edgeStyle=orthogonalEdgeStyle;rounded=0;orthogonalLoop=1;jettySize=auto;html=1;exitX=1;exitY=0.5;exitDx=0;exitDy=0;entryX=0;entryY=0.5;entryDx=0;entryDy=0;" edge="1" parent="4-Sn1hSJZ3nwtx0WgkI5-46" source="4-Sn1hSJZ3nwtx0WgkI5-55" target="4-Sn1hSJZ3nwtx0WgkI5-59">
          <mxGeometry relative="1" as="geometry" />
        </mxCell>
        <mxCell id="4-Sn1hSJZ3nwtx0WgkI5-61" value="&lt;span style=&quot;font-size: 14px;&quot;&gt;机械臂控制&lt;/span&gt;" style="rounded=1;whiteSpace=wrap;html=1;shadow=0;labelBackgroundColor=none;strokeWidth=1;fontFamily=Verdana;fontSize=8;align=center;fillColor=#e1d5e7;strokeColor=#9673a6;" vertex="1" parent="4-Sn1hSJZ3nwtx0WgkI5-46">
          <mxGeometry x="200" y="620" width="100" height="60" as="geometry" />
        </mxCell>
        <mxCell id="4-Sn1hSJZ3nwtx0WgkI5-62" style="edgeStyle=orthogonalEdgeStyle;rounded=0;orthogonalLoop=1;jettySize=auto;html=1;entryX=0;entryY=0.5;entryDx=0;entryDy=0;" edge="1" parent="4-Sn1hSJZ3nwtx0WgkI5-46" source="4-Sn1hSJZ3nwtx0WgkI5-58" target="4-Sn1hSJZ3nwtx0WgkI5-61">
          <mxGeometry relative="1" as="geometry" />
        </mxCell>
        <mxCell id="4-Sn1hSJZ3nwtx0WgkI5-63" value="NO" style="edgeStyle=orthogonalEdgeStyle;rounded=0;orthogonalLoop=1;jettySize=auto;html=1;entryX=1;entryY=0.5;entryDx=0;entryDy=0;exitX=0;exitY=0.5;exitDx=0;exitDy=0;" edge="1" parent="1" source="4-Sn1hSJZ3nwtx0WgkI5-43" target="4-Sn1hSJZ3nwtx0WgkI5-2">
          <mxGeometry relative="1" as="geometry">
            <mxPoint x="1040" y="250" as="targetPoint" />
            <mxPoint x="1176" y="370" as="sourcePoint" />
            <Array as="points">
              <mxPoint x="1330" y="360" />
              <mxPoint x="1330" y="240" />
            </Array>
          </mxGeometry>
        </mxCell>
        <mxCell id="4-Sn1hSJZ3nwtx0WgkI5-64" style="edgeStyle=orthogonalEdgeStyle;rounded=0;orthogonalLoop=1;jettySize=auto;html=1;entryX=0;entryY=0.5;entryDx=0;entryDy=0;" edge="1" parent="1" source="4-Sn1hSJZ3nwtx0WgkI5-44" target="4-Sn1hSJZ3nwtx0WgkI5-48">
          <mxGeometry relative="1" as="geometry">
            <Array as="points">
              <mxPoint x="1530" y="490" />
              <mxPoint x="1530" y="240" />
            </Array>
          </mxGeometry>
        </mxCell>
        <mxCell id="4-Sn1hSJZ3nwtx0WgkI5-65" style="edgeStyle=orthogonalEdgeStyle;rounded=0;orthogonalLoop=1;jettySize=auto;html=1;entryX=0;entryY=0.5;entryDx=0;entryDy=0;" edge="1" parent="1" source="4-Sn1hSJZ3nwtx0WgkI5-59" target="4-Sn1hSJZ3nwtx0WgkI5-72">
          <mxGeometry relative="1" as="geometry">
            <Array as="points">
              <mxPoint x="1800" y="180" />
              <mxPoint x="480" y="180" />
              <mxPoint x="480" y="350" />
            </Array>
          </mxGeometry>
        </mxCell>
        <mxCell id="4-Sn1hSJZ3nwtx0WgkI5-66" value="&lt;span style=&quot;font-size: 14px;&quot;&gt;回到初始位置&lt;/span&gt;" style="edgeLabel;html=1;align=center;verticalAlign=middle;resizable=0;points=[];" vertex="1" connectable="0" parent="4-Sn1hSJZ3nwtx0WgkI5-65">
          <mxGeometry x="-0.7687" relative="1" as="geometry">
            <mxPoint as="offset" />
          </mxGeometry>
        </mxCell>
        <mxCell id="4-Sn1hSJZ3nwtx0WgkI5-67" style="edgeStyle=orthogonalEdgeStyle;rounded=0;orthogonalLoop=1;jettySize=auto;html=1;entryX=0;entryY=0.5;entryDx=0;entryDy=0;" edge="1" parent="1" source="4-Sn1hSJZ3nwtx0WgkI5-61" target="4-Sn1hSJZ3nwtx0WgkI5-72">
          <mxGeometry relative="1" as="geometry">
            <Array as="points">
              <mxPoint x="1800" y="870" />
              <mxPoint x="480" y="870" />
              <mxPoint x="480" y="350" />
            </Array>
          </mxGeometry>
        </mxCell>
        <mxCell id="4-Sn1hSJZ3nwtx0WgkI5-68" value="&lt;span style=&quot;font-size: 14px;&quot;&gt;下次抓取初始位置&lt;/span&gt;" style="edgeLabel;html=1;align=center;verticalAlign=middle;resizable=0;points=[];" vertex="1" connectable="0" parent="4-Sn1hSJZ3nwtx0WgkI5-67">
          <mxGeometry x="-0.9641" relative="1" as="geometry">
            <mxPoint y="-12" as="offset" />
          </mxGeometry>
        </mxCell>
        <mxCell id="4-Sn1hSJZ3nwtx0WgkI5-69" value="" style="endArrow=none;html=1;rounded=0;exitX=0;exitY=0.5;exitDx=0;exitDy=0;" edge="1" parent="1" source="4-Sn1hSJZ3nwtx0WgkI5-28">
          <mxGeometry width="50" height="50" relative="1" as="geometry">
            <mxPoint x="570" y="820" as="sourcePoint" />
            <mxPoint x="570" y="580" as="targetPoint" />
            <Array as="points">
              <mxPoint x="570" y="830" />
            </Array>
          </mxGeometry>
        </mxCell>
        <mxCell id="4-Sn1hSJZ3nwtx0WgkI5-70" value="深度图像" style="edgeLabel;html=1;align=center;verticalAlign=middle;resizable=0;points=[];" vertex="1" connectable="0" parent="4-Sn1hSJZ3nwtx0WgkI5-69">
          <mxGeometry x="-0.5089" relative="1" as="geometry">
            <mxPoint x="-2" as="offset" />
          </mxGeometry>
        </mxCell>
        <mxCell id="4-Sn1hSJZ3nwtx0WgkI5-71" value="&lt;p&gt;图像获取&lt;/p&gt;" style="swimlane;html=1;startSize=20;fillColor=#f8cecc;strokeColor=#b85450;swimlaneFillColor=none;gradientColor=#ea6b66;" vertex="1" parent="1">
          <mxGeometry x="450" y="150" width="230" height="730" as="geometry" />
        </mxCell>
        <mxCell id="4-Sn1hSJZ3nwtx0WgkI5-72" value="&lt;span style=&quot;font-size: 14px;&quot;&gt;RGB-D相机&lt;/span&gt;" style="rounded=1;whiteSpace=wrap;html=1;fillColor=#f8cecc;strokeColor=#b85450;" vertex="1" parent="4-Sn1hSJZ3nwtx0WgkI5-71">
          <mxGeometry x="60" y="170" width="120" height="60" as="geometry" />
        </mxCell>
        <mxCell id="4-Sn1hSJZ3nwtx0WgkI5-73" value="&lt;p&gt;场景建模&lt;/p&gt;" style="swimlane;html=1;startSize=20;fillColor=#ffcd28;strokeColor=#d79b00;swimlaneFillColor=none;gradientColor=#ffa500;" vertex="1" parent="1">
          <mxGeometry x="680" y="150" width="230" height="730" as="geometry" />
        </mxCell>
        <mxCell id="4-Sn1hSJZ3nwtx0WgkI5-74" value="&lt;p class=&quot;MsoNormal&quot;&gt;&lt;span style=&quot;font-family: 宋体;&quot;&gt;&lt;font style=&quot;font-size: 15px;&quot; face=&quot;Times New Roman&quot;&gt;BundleFusion建模&lt;/font&gt;&lt;/span&gt;&lt;/p&gt;" style="rounded=1;whiteSpace=wrap;html=1;fillColor=#ffe6cc;strokeColor=#d79b00;" vertex="1" parent="4-Sn1hSJZ3nwtx0WgkI5-73">
          <mxGeometry x="55" y="170" width="120" height="60" as="geometry" />
        </mxCell>
        <mxCell id="4-Sn1hSJZ3nwtx0WgkI5-75" style="edgeStyle=orthogonalEdgeStyle;rounded=0;orthogonalLoop=1;jettySize=auto;html=1;entryX=0;entryY=0.5;entryDx=0;entryDy=0;" edge="1" parent="1" source="4-Sn1hSJZ3nwtx0WgkI5-72" target="4-Sn1hSJZ3nwtx0WgkI5-74">
          <mxGeometry relative="1" as="geometry" />
        </mxCell>
        <mxCell id="4-Sn1hSJZ3nwtx0WgkI5-76" style="edgeStyle=orthogonalEdgeStyle;rounded=0;orthogonalLoop=1;jettySize=auto;html=1;entryX=0.5;entryY=0;entryDx=0;entryDy=0;" edge="1" parent="1" source="4-Sn1hSJZ3nwtx0WgkI5-74" target="4-Sn1hSJZ3nwtx0WgkI5-40">
          <mxGeometry relative="1" as="geometry">
            <Array as="points">
              <mxPoint x="795" y="190" />
              <mxPoint x="1450" y="190" />
            </Array>
          </mxGeometry>
        </mxCell>
        <mxCell id="4-Sn1hSJZ3nwtx0WgkI5-30" style="edgeStyle=orthogonalEdgeStyle;rounded=0;orthogonalLoop=1;jettySize=auto;html=1;entryX=0;entryY=0.5;entryDx=0;entryDy=0;exitX=1;exitY=0.5;exitDx=0;exitDy=0;" edge="1" parent="1" source="4-Sn1hSJZ3nwtx0WgkI5-28" target="4-Sn1hSJZ3nwtx0WgkI5-2">
          <mxGeometry relative="1" as="geometry">
            <Array as="points">
              <mxPoint x="1070" y="830" />
              <mxPoint x="1070" y="240" />
            </Array>
            <mxPoint x="1080" y="860" as="sourcePoint" />
            <mxPoint x="1135" y="240" as="targetPoint" />
          </mxGeometry>
        </mxCell>
        <mxCell id="4-Sn1hSJZ3nwtx0WgkI5-31" value="&lt;font face=&quot;Verdana&quot;&gt;&lt;span style=&quot;font-size: 13px; text-wrap-mode: wrap; background-color: light-dark(#ffffff, var(--ge-dark-color, #121212));&quot;&gt;掩膜深度图像&lt;/span&gt;&lt;/font&gt;" style="edgeLabel;html=1;align=center;verticalAlign=middle;resizable=0;points=[];" vertex="1" connectable="0" parent="4-Sn1hSJZ3nwtx0WgkI5-30">
          <mxGeometry x="0.1173" relative="1" as="geometry">
            <mxPoint x="-8" y="-99" as="offset" />
          </mxGeometry>
        </mxCell>
        <mxCell id="4-Sn1hSJZ3nwtx0WgkI5-82" style="edgeStyle=orthogonalEdgeStyle;rounded=0;orthogonalLoop=1;jettySize=auto;html=1;entryX=0;entryY=0.5;entryDx=0;entryDy=0;" edge="1" parent="1" source="4-Sn1hSJZ3nwtx0WgkI5-21" target="4-Sn1hSJZ3nwtx0WgkI5-2">
          <mxGeometry relative="1" as="geometry">
            <Array as="points">
              <mxPoint x="1070" y="460" />
              <mxPoint x="1070" y="240" />
            </Array>
          </mxGeometry>
        </mxCell>
      </root>
    </mxGraphModel>
  </diagram>
</mxfile>
